PathFileType	4	(X/Y/Z)	/Users/itak/Documents/Research/Walk-IL/dataset/trc/00116_00007.trc
DataRate	CameraRate	NumFrames	NumMarkers	Units	OrigDataRate	OrigDataStartFrame	OrigNumFrames
100.000000	100.000000	4	53	mm	100.000000	269	538
Frame#	Time	RPSI			LPSI			L3			STRN			T10			C7			CLAV			RBAK			LBAK			LSHO			LUPA			LAEL			LAOL			LWTS			LWPS			LFRA			LIFD			LHPS			LHTS			RSHO			RUPA			RAEL			RAOL			RWTS			RWPS			RFRA			RIFD			RHTS			RHPS			RBHD			LFHD			RFHD			LBHD			LHIP			RHIP			RASI			LASI			LKNE			LTHI			LANK			LTIP			LTOE			LMT1			LMT5			LHEE			RKNE			RTHI			RANK			RTIP			RTOE			RMT1			RMT5			RHEE			
		X1	Y1	Z1	X2	Y2	Z2	X3	Y3	Z3	X4	Y4	Z4	X5	Y5	Z5	X6	Y6	Z6	X7	Y7	Z7	X8	Y8	Z8	X9	Y9	Z9	X10	Y10	Z10	X11	Y11	Z11	X12	Y12	Z12	X13	Y13	Z13	X14	Y14	Z14	X15	Y15	Z15	X16	Y16	Z16	X17	Y17	Z17	X18	Y18	Z18	X19	Y19	Z19	X20	Y20	Z20	X21	Y21	Z21	X22	Y22	Z22	X23	Y23	Z23	X24	Y24	Z24	X25	Y25	Z25	X26	Y26	Z26	X27	Y27	Z27	X28	Y28	Z28	X29	Y29	Z29	X30	Y30	Z30	X31	Y31	Z31	X32	Y32	Z32	X33	Y33	Z33	X34	Y34	Z34	X35	Y35	Z35	X36	Y36	Z36	X37	Y37	Z37	X38	Y38	Z38	X39	Y39	Z39	X40	Y40	Z40	X41	Y41	Z41	X42	Y42	Z42	X43	Y43	Z43	X44	Y44	Z44	X45	Y45	Z45	X46	Y46	Z46	X47	Y47	Z47	X48	Y48	Z48	X49	Y49	Z49	X50	Y50	Z50	X51	Y51	Z51	X52	Y52	Z52	X53	Y53	Z53	

270	2.69	-371.489501953125	1100.906005859375	-272.0462646484375	-366.2176208496094	1107.234130859375	-407.9339599609375	-373.9045715332031	1142.05908203125	-340.7330627441406	-139.4825439453125	1328.765625	-333.0739440917969	-390.0745544433594	1294.4912109375	-333.1371459960938	-338.6957397460938	1583.9228515625	-354.9787902832031	-164.7143707275391	1466.083984375	-341.7525024414062	-401.932861328125	1407.066650390625	-260.3030090332031	-346.729248046875	1561.059936523438	-455.7471923828125	-261.7579650878906	1538.8173828125	-522.143798828125	-288.5601196289062	1409.8154296875	-591.9722290039062	-288.2850952148438	1193.721435546875	-623.3304443359375	-350.260498046875	1180.34326171875	-563.1298828125	-185.9553375244141	936.3167724609375	-595.7379760742188	-268.5364990234375	909.9859619140625	-617.8357543945312	-273.0898742675781	1077.936889648438	-633.0831298828125	-170.1043548583984	742.9476318359375	-579.669677734375	-238.38720703125	835.3684692382812	-623.0403442382812	-170.2131195068359	847.414306640625	-610.4502563476562	-282.876953125	1569.392333984375	-172.3369903564453	-299.9772338867188	1498.2021484375	-105.6815032958984	-313.8659057617188	1203.085327148438	-77.90577697753906	-323.48486328125	1200.09716796875	-173.7914428710938	-158.5014495849609	968.9207153320312	-90.79215240478516	-230.2910919189453	947.6466674804688	-57.30559539794922	-287.027099609375	1130.507690429688	-61.85901641845703	-121.9833908081055	776.0132446289062	-104.6868896484375	-121.5520629882812	863.09375	-83.61672973632812	-186.5434112548828	851.3334350585938	-51.29775238037109	-300.2682189941406	1749.124633789062	-281.2338562011719	-156.6108856201172	1816.68310546875	-435.3924865722656	-145.0518493652344	1831.220092773438	-306.6240234375	-320.9415588378906	1738.787353515625	-416.5658874511719	-269.3808898925781	1022.037109375	-516.1429443359375	-253.4843139648438	995.114013671875	-150.7593688964844	-167.7459564208984	1067.140014648438	-197.0848846435547	-164.2263336181641	1078.199462890625	-461.661865234375	-108.4388809204102	544.1934814453125	-488.1217651367188	-175.6130523681641	672.6065673828125	-518.8023071289062	-37.95814895629883	28.69015693664551	-474.8507080078125	-117.7997360229492	280.610595703125	-511.7546691894531	179.2547454833984	90.31205749511719	-419.9572143554688	102.5529708862305	80.91668701171875	-383.8946228027344	84.45122528076172	46.56593704223633	-491.9053344726562	-108.6987457275391	27.53811836242676	-414.1972045898438	-286.0918273925781	500.4652099609375	-217.5480804443359	-242.4796600341797	779.6722412109375	-173.8795166015625	-607.859130859375	77.49859619140625	-220.3409576416016	-367.2091674804688	383.0720825195312	-202.3587646484375	-386.1758728027344	40.02728271484375	-274.3551330566406	-445.7966613769531	33.51687622070312	-316.2161560058594	-478.1990356445312	44.34896850585938	-201.4353942871094	-662.7587890625	104.3728179931641	-267.6719970703125	
271	2.7	-382.5940856933594	1100.5556640625	-270.5539245605469	-377.9788208007812	1106.421508789062	-406.4770812988281	-385.0659790039062	1142.006591796875	-339.2611083984375	-149.2715454101562	1327.530029296875	-331.5568237304688	-400.0150146484375	1294.539916992188	-331.3343505859375	-346.9119567871094	1583.688842773438	-352.7532958984375	-173.6116638183594	1465.022338867188	-339.8493347167969	-411.0274963378906	1407.09814453125	-258.1382751464844	-355.1188354492188	1560.908081054688	-453.5728759765625	-270.2794494628906	1538.18212890625	-520.0106201171875	-297.4147644042969	1409.22998046875	-589.751220703125	-296.9834594726562	1193.118896484375	-621.3190307617188	-359.2355651855469	1179.75390625	-561.173583984375	-195.3590545654297	935.5114135742188	-593.946044921875	-278.0041809082031	909.3632202148438	-616.0933837890625	-282.1509094238281	1077.323364257812	-631.1087036132812	-179.9639739990234	742.0765991210938	-578.104248046875	-248.0250396728516	834.73291015625	-621.385498046875	-179.797607421875	846.580322265625	-608.740478515625	-290.9151000976562	1568.677001953125	-170.1479644775391	-308.2378845214844	1497.518310546875	-103.5156478881836	-322.4605102539062	1202.273315429688	-75.58040618896484	-332.4769592285156	1199.278930664062	-171.4520874023438	-165.9229736328125	968.9541015625	-89.20622253417969	-237.4655609130859	947.1784057617188	-55.51681518554688	-295.2981872558594	1129.70751953125	-59.71162033081055	-128.0377349853516	776.3878173828125	-103.1259231567383	-128.2026214599609	863.4487915039062	-82.07109069824219	-193.0337066650391	851.20263671875	-49.60647201538086	-308.1493835449219	1748.257690429688	-278.9778442382812	-164.8434600830078	1815.793334960938	-433.4951477050781	-153.1164398193359	1830.519775390625	-304.7556762695312	-329.0368957519531	1737.706176757812	-414.2472229003906	-281.4039306640625	1020.540100097656	-514.6498413085938	-264.4040832519531	995.0238647460938	-149.25341796875	-178.5314636230469	1066.37060546875	-195.8549194335938	-176.05908203125	1077.09619140625	-460.4237976074219	-117.6136779785156	543.653076171875	-488.1410827636719	-186.5337982177734	671.5100708007812	-518.5836791992188	-40.12971496582031	29.07046699523926	-475.2675476074219	-124.995719909668	280.3287353515625	-511.28125	175.4400177001953	97.96597290039062	-423.81494140625	99.76936340332031	86.08087921142578	-386.5951538085938	81.17524719238281	50.05922317504883	-494.2640075683594	-109.840461730957	26.00824165344238	-413.6235961914062	-296.2612609863281	500.6258544921875	-216.9078063964844	-253.359375	779.7606811523438	-172.3011779785156	-610.5086669921875	73.11797332763672	-223.9804077148438	-375.6319580078125	382.00341796875	-202.7677001953125	-385.9713745117188	40.04943466186523	-274.1345825195312	-445.7163391113281	32.73494720458984	-316.7033996582031	-479.9360656738281	44.32829284667969	-202.5464324951172	-665.7457275390625	97.90650939941406	-272.2944030761719	
272	2.71	-393.7068481445312	1100.384033203125	-269.1581420898438	-389.8117370605469	1105.795043945312	-405.0882568359375	-396.3323059082031	1142.170776367188	-337.8695678710938	-159.0970306396484	1326.54833984375	-330.1995239257812	-409.876953125	1294.766845703125	-329.6058044433594	-355.152587890625	1583.633544921875	-350.5553894042969	-182.5141296386719	1464.230346679688	-338.0629577636719	-420.0711059570312	1407.299560546875	-256.0210266113281	-363.5906982421875	1560.98828125	-451.4253234863281	-278.8916320800781	1537.887817382812	-517.9559326171875	-306.3123168945312	1408.970947265625	-587.6097412109375	-305.6349792480469	1192.823608398438	-619.245361328125	-368.0785217285156	1179.474853515625	-559.12451171875	-204.8007202148438	934.9342041015625	-592.1376953125	-287.5355224609375	909.040771484375	-614.2581176757812	-291.1804504394531	1077.0166015625	-629.0762329101562	-190.0299987792969	741.4136352539062	-576.5331420898438	-257.812255859375	834.3709716796875	-619.661376953125	-189.4895324707031	845.9742431640625	-607.0336303710938	-298.9309387207031	1568.14111328125	-168.0284729003906	-316.4555358886719	1497.033813476562	-101.4136962890625	-331.1636657714844	1201.704467773438	-73.27186584472656	-341.5725708007812	1198.706420898438	-169.1440124511719	-173.5704040527344	969.1533813476562	-87.58827209472656	-244.8751831054688	946.9110717773438	-53.70740509033203	-303.7337036132812	1129.14453125	-57.57299423217773	-134.4081268310547	776.9151000976562	-101.5543441772461	-135.1527557373047	863.9391479492188	-80.51026916503906	-199.8126525878906	851.245361328125	-47.90101623535156	-315.9970397949219	1747.642822265625	-276.7273254394531	-173.0310821533203	1815.094360351562	-431.6023559570312	-161.0972137451172	1830.021606445312	-302.9126281738281	-337.1160888671875	1736.880004882812	-411.9215698242188	-293.4427795410156	1019.155700683594	-513.1937255859375	-275.2852172851562	995.2312622070312	-147.8320007324219	-189.3717803955078	1065.93212890625	-194.8090209960938	-187.8841705322266	1076.203125	-459.3454895019531	-126.5968551635742	543.2415161132812	-488.0537109375	-197.41650390625	670.510498046875	-518.357177734375	-43.05869293212891	29.62839889526367	-475.5627136230469	-132.4607086181641	280.1014404296875	-510.4725646972656	170.9808959960938	105.2194976806641	-428.0497131347656	96.44754028320312	90.94784545898438	-389.4803466796875	77.07501220703125	53.8261833190918	-496.908203125	-111.4298934936523	24.51408386230469	-412.732666015625	-305.8148803710938	500.9615478515625	-215.9759216308594	-264.0491943359375	780.1336059570312	-170.6335601806641	-612.6737670898438	69.18517303466797	-227.2171173095703	-383.3746032714844	381.1197814941406	-202.910888671875	-385.6734619140625	39.99332046508789	-273.9372253417969	-445.5423889160156	32.0872802734375	-317.1600036621094	-481.4246826171875	44.28956985473633	-203.6220703125	-668.1381225585938	92.03591918945312	-276.3775939941406	
273	2.72	-404.7952270507812	1100.34228515625	-267.8544616699219	-401.638671875	1105.34912109375	-403.7626037597656	-407.6730041503906	1142.517211914062	-336.5568542480469	-168.9327545166016	1325.806396484375	-328.9970092773438	-419.6459350585938	1295.143920898438	-327.981201171875	-363.4170837402344	1583.734130859375	-348.4209594726562	-191.4103698730469	1463.691650390625	-336.4122009277344	-429.0578002929688	1407.642700195312	-253.9881591796875	-372.1246032714844	1561.282958984375	-449.3402404785156	-287.5755920410156	1537.930297851562	-516.0126953125	-315.2341918945312	1409.035888671875	-585.58251953125	-314.2863159179688	1192.829467773438	-617.1425170898438	-376.8137512207031	1179.511962890625	-556.98876953125	-214.2764129638672	934.5980834960938	-590.3345947265625	-297.1311950683594	909.014404296875	-612.3192749023438	-300.2147216796875	1077.0107421875	-627.0071411132812	-200.2565002441406	740.9796142578125	-574.9384765625	-267.7336120605469	834.2796630859375	-617.8482055664062	-199.2878570556641	845.6002807617188	-605.331298828125	-306.9384765625	1567.768432617188	-166.0113983154297	-324.6297912597656	1496.73095703125	-99.40780639648438	-339.9554138183594	1201.369262695312	-70.98672485351562	-350.7633361816406	1198.35986328125	-166.8663787841797	-181.4403076171875	969.49365234375	-85.94794464111328	-252.5157012939453	946.83251953125	-51.87421417236328	-312.3079528808594	1128.811889648438	-55.44300079345703	-141.1247253417969	777.559326171875	-99.99220275878906	-142.4063110351562	864.5350952148438	-78.94944763183594	-206.8858032226562	851.4395141601562	-46.18375396728516	-323.8269653320312	1747.261474609375	-274.5012817382812	-181.1822509765625	1814.579345703125	-429.7251892089844	-169.0018463134766	1829.710815429688	-301.1048278808594	-345.190185546875	1736.30224609375	-409.6115112304688	-305.388671875	1017.912841796875	-511.7710876464844	-286.1088562011719	995.664794921875	-146.4891204833984	-200.2743225097656	1065.789794921875	-193.9207916259766	-199.6169586181641	1075.499755859375	-458.3999633789062	-135.3581695556641	542.9828491210938	-487.8898010253906	-208.1825866699219	669.638916015625	-518.1112060546875	-46.95570373535156	30.30508613586426	-475.6669616699219	-140.2266845703125	279.9204406738281	-509.3202209472656	165.8065948486328	111.6425018310547	-432.727294921875	92.52998352050781	95.27944946289062	-392.5829162597656	71.94774627685547	57.52150726318359	-499.7908325195312	-113.6604614257812	23.18313026428223	-411.4338989257812	-314.7899169921875	501.4264526367188	-214.8130035400391	-274.5184326171875	780.714111328125	-168.9092407226562	-614.416015625	65.63923645019531	-229.8805847167969	-390.4521179199219	380.3822326660156	-202.7960357666016	-385.3721923828125	39.8895378112793	-273.7803649902344	-445.3509521484375	31.55327796936035	-317.5646667480469	-482.655517578125	44.19086837768555	-204.5825653076172	-670.0556640625	86.70933532714844	-279.7140808105469	
